<mxfile host="app.diagrams.net" modified="2023-10-11T07:38:34.025Z" agent="Mozilla/5.0 (Macintosh; Intel Mac OS X 10_15_7) AppleWebKit/537.36 (KHTML, like Gecko) Chrome/116.0.0.0 Safari/537.36" etag="UhWi1T6z6zHNZ24GE8yI" version="22.0.4" type="github">
  <diagram id="prtHgNgQTEPvFCAcTncT" name="Page-1">
    <mxGraphModel dx="2261" dy="790" grid="1" gridSize="10" guides="1" tooltips="1" connect="1" arrows="1" fold="1" page="1" pageScale="1" pageWidth="827" pageHeight="1169" math="0" shadow="0">
      <root>
        <mxCell id="0" />
        <mxCell id="1" parent="0" />
        <mxCell id="fDUamY-TMNvM78CvobbD-2" value="" style="swimlane;startSize=0;" vertex="1" parent="1">
          <mxGeometry x="30" y="140" width="350" height="320" as="geometry" />
        </mxCell>
        <mxCell id="fDUamY-TMNvM78CvobbD-4" value="数据维护框架" style="text;html=1;align=center;verticalAlign=middle;resizable=0;points=[];autosize=1;strokeColor=none;fillColor=none;" vertex="1" parent="fDUamY-TMNvM78CvobbD-2">
          <mxGeometry x="120" y="18" width="100" height="30" as="geometry" />
        </mxCell>
        <mxCell id="fDUamY-TMNvM78CvobbD-5" value="增" style="whiteSpace=wrap;html=1;fillColor=#dae8fc;strokeColor=#6c8ebf;" vertex="1" parent="fDUamY-TMNvM78CvobbD-2">
          <mxGeometry x="20" y="132" width="60" height="40" as="geometry" />
        </mxCell>
        <mxCell id="fDUamY-TMNvM78CvobbD-9" value="查" style="whiteSpace=wrap;html=1;fillColor=#dae8fc;strokeColor=#6c8ebf;" vertex="1" parent="fDUamY-TMNvM78CvobbD-2">
          <mxGeometry x="100" y="192" width="60" height="40" as="geometry" />
        </mxCell>
        <mxCell id="fDUamY-TMNvM78CvobbD-8" value="删" style="whiteSpace=wrap;html=1;fillColor=#dae8fc;strokeColor=#6c8ebf;" vertex="1" parent="fDUamY-TMNvM78CvobbD-2">
          <mxGeometry x="100" y="132" width="60" height="40" as="geometry" />
        </mxCell>
        <mxCell id="fDUamY-TMNvM78CvobbD-7" value="被动维护" style="whiteSpace=wrap;html=1;fillColor=#dae8fc;strokeColor=#6c8ebf;" vertex="1" parent="fDUamY-TMNvM78CvobbD-2">
          <mxGeometry x="20" y="252" width="60" height="40" as="geometry" />
        </mxCell>
        <mxCell id="fDUamY-TMNvM78CvobbD-6" value="改" style="whiteSpace=wrap;html=1;fillColor=#dae8fc;strokeColor=#6c8ebf;" vertex="1" parent="fDUamY-TMNvM78CvobbD-2">
          <mxGeometry x="20" y="192" width="60" height="40" as="geometry" />
        </mxCell>
        <mxCell id="fDUamY-TMNvM78CvobbD-11" value="数据加载" style="whiteSpace=wrap;html=1;fillColor=#dae8fc;strokeColor=#6c8ebf;" vertex="1" parent="fDUamY-TMNvM78CvobbD-2">
          <mxGeometry x="100" y="252" width="60" height="40" as="geometry" />
        </mxCell>
        <mxCell id="fDUamY-TMNvM78CvobbD-12" value="数据编辑接口" style="text;html=1;align=center;verticalAlign=middle;resizable=0;points=[];autosize=1;strokeColor=none;fillColor=none;" vertex="1" parent="fDUamY-TMNvM78CvobbD-2">
          <mxGeometry x="50" y="80" width="100" height="30" as="geometry" />
        </mxCell>
        <mxCell id="fDUamY-TMNvM78CvobbD-14" value="其他接口" style="text;html=1;align=center;verticalAlign=middle;resizable=0;points=[];autosize=1;strokeColor=none;fillColor=none;" vertex="1" parent="fDUamY-TMNvM78CvobbD-2">
          <mxGeometry x="230" y="80" width="70" height="30" as="geometry" />
        </mxCell>
        <mxCell id="fDUamY-TMNvM78CvobbD-16" value="历史记录" style="whiteSpace=wrap;html=1;fillColor=#fff2cc;strokeColor=#d6b656;" vertex="1" parent="fDUamY-TMNvM78CvobbD-2">
          <mxGeometry x="200" y="132" width="60" height="40" as="geometry" />
        </mxCell>
        <mxCell id="fDUamY-TMNvM78CvobbD-17" value="版本diff" style="whiteSpace=wrap;html=1;fillColor=#fff2cc;strokeColor=#d6b656;" vertex="1" parent="fDUamY-TMNvM78CvobbD-2">
          <mxGeometry x="274" y="132" width="60" height="40" as="geometry" />
        </mxCell>
        <mxCell id="fDUamY-TMNvM78CvobbD-18" value="任务信息" style="whiteSpace=wrap;html=1;fillColor=#fff2cc;strokeColor=#d6b656;" vertex="1" parent="fDUamY-TMNvM78CvobbD-2">
          <mxGeometry x="200" y="192" width="60" height="40" as="geometry" />
        </mxCell>
        <mxCell id="fDUamY-TMNvM78CvobbD-19" value="clear" style="whiteSpace=wrap;html=1;fillColor=#fff2cc;strokeColor=#d6b656;" vertex="1" parent="fDUamY-TMNvM78CvobbD-2">
          <mxGeometry x="274" y="192" width="60" height="40" as="geometry" />
        </mxCell>
        <mxCell id="fDUamY-TMNvM78CvobbD-21" value="" style="swimlane;startSize=0;" vertex="1" parent="1">
          <mxGeometry x="-200" y="140" width="200" height="200" as="geometry" />
        </mxCell>
        <mxCell id="fDUamY-TMNvM78CvobbD-22" value="DSL执行" style="text;html=1;align=center;verticalAlign=middle;resizable=0;points=[];autosize=1;strokeColor=none;fillColor=none;" vertex="1" parent="fDUamY-TMNvM78CvobbD-21">
          <mxGeometry x="60" y="10" width="70" height="30" as="geometry" />
        </mxCell>
      </root>
    </mxGraphModel>
  </diagram>
</mxfile>
